<?xml version="1.0" encoding="utf-8"?>
<!-- Generator: Adobe Illustrator 15.0.0, SVG Export Plug-In . SVG Version: 6.00 Build 0)  -->
<!DOCTYPE svg PUBLIC "-//W3C//DTD SVG 1.1//EN" "http://www.w3.org/Graphics/SVG/1.1/DTD/svg11.dtd">
<svg version="1.1" id="Layer_1" xmlns="http://www.w3.org/2000/svg" xmlns:xlink="http://www.w3.org/1999/xlink" x="0px" y="0px"
	 width="402.723px" height="82.654px" viewBox="0 0 402.723 82.654" enable-background="new 0 0 402.723 82.654"
	 xml:space="preserve">
<g>
	<defs>
		<polygon id="SVGID_1_" points="45.611,0 0,79 47.696,79 93.307,0 		"/>
	</defs>
	<clipPath id="SVGID_2_">
		<use xlink:href="#SVGID_1_"  overflow="visible"/>
	</clipPath>
	
		<linearGradient id="SVGID_3_" gradientUnits="userSpaceOnUse" x1="-264.7832" y1="331" x2="-263.7832" y2="331" gradientTransform="matrix(-3.500000e-06 -78.9995 -78.9995 3.500000e-06 26195.4922 -20838.8223)">
		<stop  offset="0" style="stop-color:#3D9BDE"/>
		<stop  offset="0.1551" style="stop-color:#3D9BDE"/>
		<stop  offset="0.8544" style="stop-color:#015793"/>
		<stop  offset="1" style="stop-color:#015793"/>
	</linearGradient>
	<rect clip-path="url(#SVGID_2_)" fill="url(#SVGID_3_)" width="93.307" height="79"/>
</g>
<g>
	<defs>
		<path id="SVGID_4_" d="M138.511,16H111.25l-9.238-16h27.262L138.511,16z M147.172,31H119.91l9.238,16h27.261L147.172,31z
			 M165.07,62h-27.262l9.815,17h27.261L165.07,62z"/>
	</defs>
	<clipPath id="SVGID_5_">
		<use xlink:href="#SVGID_4_"  overflow="visible"/>
	</clipPath>
	
		<linearGradient id="SVGID_6_" gradientUnits="userSpaceOnUse" x1="-264.7832" y1="331" x2="-263.7832" y2="331" gradientTransform="matrix(-3.500000e-06 -78.9995 -78.9995 3.500000e-06 26287.3047 -20838.8223)">
		<stop  offset="0" style="stop-color:#015793"/>
		<stop  offset="0.085" style="stop-color:#015793"/>
		<stop  offset="0.8498" style="stop-color:#71B7E9"/>
		<stop  offset="1" style="stop-color:#71B7E9"/>
	</linearGradient>
	<rect x="102.012" clip-path="url(#SVGID_5_)" fill="url(#SVGID_6_)" width="72.872" height="79"/>
</g>
<g>
	<defs>
		<polygon id="SVGID_7_" points="47.012,0 92.623,79 140.319,79 94.708,0 		"/>
	</defs>
	<clipPath id="SVGID_8_">
		<use xlink:href="#SVGID_7_"  overflow="visible"/>
	</clipPath>
	
		<linearGradient id="SVGID_9_" gradientUnits="userSpaceOnUse" x1="-264.7842" y1="331" x2="-263.7842" y2="331" gradientTransform="matrix(-3.500000e-06 -78.9995 -78.9995 3.500000e-06 26242.4922 -20838.3223)">
		<stop  offset="0" style="stop-color:#015793"/>
		<stop  offset="0.1804" style="stop-color:#015793"/>
		<stop  offset="0.8576" style="stop-color:#71B7E9"/>
		<stop  offset="1" style="stop-color:#71B7E9"/>
	</linearGradient>
	<rect x="47.012" clip-path="url(#SVGID_8_)" fill="url(#SVGID_9_)" width="93.307" height="79"/>
</g>
<g>
	<defs>
		<path id="SVGID_10_" d="M238.3,56.44l-5.152,5.298l-3.08-5.298h-3.716l4.721,7.534l-8.804,8.943h3.856l6.317-6.707l4.389,6.707
			h3.765l-5.74-8.943l7.289-7.534H238.3z M208.377,59.81c1.056-0.758,2.2-1.136,3.433-1.136c1.279,0,2.286,0.384,3.021,1.146
			c0.73,0.763,1.1,1.768,1.1,3.011h-9.842C206.557,61.574,207.319,60.567,208.377,59.81 M205.718,58.534
			c-1.737,1.666-2.799,3.721-3.187,6.161c-0.094,0.599-0.14,1.18-0.14,1.744c0,2.16,0.653,3.876,1.963,5.149
			c1.308,1.273,3.09,1.91,5.344,1.91c1.585,0,3.151-0.421,4.7-1.259c1.549-0.839,2.782-1.921,3.697-3.249l-2.363-1.408
			c-1.516,2.09-3.426,3.133-5.729,3.133c-1.339,0-2.408-0.4-3.199-1.205c-0.795-0.803-1.191-1.874-1.191-3.214
			c0-0.352,0.029-0.715,0.087-1.092h12.994l0.07-0.546c0.094-0.621,0.143-1.226,0.143-1.812c0-2.065-0.564-3.715-1.69-4.947
			c-1.211-1.314-2.9-1.973-5.072-1.973C209.691,55.928,207.55,56.798,205.718,58.534 M250.813,69.327
			c-0.785-0.869-1.179-2.015-1.179-3.436c0-0.396,0.035-0.809,0.106-1.232c0.256-1.629,0.996-3.024,2.217-4.179
			c1.221-1.156,2.547-1.734,3.979-1.734c1.349,0,2.421,0.433,3.213,1.302c0.791,0.869,1.188,2.001,1.188,3.397
			c0,0.4-0.035,0.805-0.105,1.214c-0.281,1.752-0.988,3.192-2.121,4.324c-1.135,1.132-2.469,1.697-4.006,1.697
			C252.721,70.681,251.624,70.23,250.813,69.327 M250.754,59.29l0.47-2.85h-3.174l-4.154,26.214h3.154l1.974-12.45
			c1.21,2.195,2.973,3.295,5.286,3.295c2.268,0,4.26-0.83,5.975-2.491c1.716-1.66,2.771-3.766,3.171-6.312
			c0.094-0.586,0.142-1.161,0.142-1.725c0-2.089-0.59-3.786-1.77-5.089c-1.182-1.302-2.758-1.954-4.733-1.954
			C254.794,55.928,252.68,57.049,250.754,59.29 M273.882,59.81c1.057-0.758,2.2-1.136,3.434-1.136c1.277,0,2.285,0.384,3.02,1.146
			c0.732,0.763,1.1,1.768,1.1,3.011h-9.842C272.061,61.574,272.826,60.567,273.882,59.81 M271.224,58.534
			c-1.738,1.666-2.8,3.721-3.187,6.161c-0.096,0.599-0.143,1.18-0.143,1.744c0,2.16,0.655,3.876,1.963,5.149
			c1.31,1.273,3.091,1.91,5.346,1.91c1.583,0,3.149-0.421,4.7-1.259c1.549-0.839,2.781-1.921,3.696-3.249l-2.36-1.408
			c-1.519,2.09-3.428,3.133-5.731,3.133c-1.34,0-2.407-0.4-3.2-1.205c-0.795-0.803-1.189-1.874-1.189-3.214
			c0-0.352,0.028-0.715,0.088-1.092H284.2l0.069-0.546c0.093-0.621,0.141-1.226,0.141-1.812c0-2.065-0.563-3.715-1.69-4.947
			c-1.209-1.314-2.9-1.973-5.07-1.973C275.194,55.928,273.054,56.798,271.224,58.534 M293.373,59.22l0.441-2.779h-3.066
			l-2.605,16.478h3.155l1.355-8.577c0.247-1.536,0.782-2.797,1.604-3.782c0.896-1.069,1.964-1.603,3.211-1.603
			c0.846,0,1.521,0.229,2.027,0.688l1.234-3.203c-0.881-0.343-1.695-0.513-2.446-0.513C296.571,55.928,294.934,57.026,293.373,59.22
			 M320.112,57.283c-1.387,0.928-2.206,2.042-2.459,3.346c-0.056,0.28-0.086,0.552-0.086,0.809c0,1.526,1.234,2.781,3.7,3.768
			c1.6,0.635,2.645,1.118,3.143,1.445c0.497,0.33,0.745,0.721,0.745,1.18c0,0.14-0.014,0.299-0.04,0.474
			c-0.125,0.694-0.52,1.264-1.179,1.708c-0.658,0.447-1.422,0.669-2.29,0.669c-1.57,0-2.774-0.768-3.613-2.305l-3.112,1.901
			c1.357,2.147,3.426,3.222,6.2,3.222c1.892,0,3.599-0.533,5.129-1.595c1.526-1.062,2.43-2.342,2.71-3.846
			c0.054-0.271,0.085-0.533,0.085-0.792c0-1.689-1.543-3.11-4.625-4.261c-2.173-0.811-3.256-1.561-3.256-2.253
			c0-0.553,0.3-1.035,0.902-1.445c0.548-0.374,1.161-0.562,1.85-0.562c1.009,0,1.829,0.503,2.46,1.512l2.772-1.652
			c-0.909-1.785-2.479-2.678-4.708-2.678C322.9,55.928,321.457,56.381,320.112,57.283 M308.646,48.868l-1.191,7.572h-1.935
			l-0.476,2.973h1.935l-2.104,13.505h3.183l2.104-13.505h2.665l0.476-2.973h-2.665l1.191-7.572H308.646z M331.503,40.38h8.618
			V16.094h-8.618V40.38z M260.213,15.77c-3.374,0-5.908,1.448-7.603,4.344v-4.021h-8.619V40.38h8.619V30.12
			c0-4.576,1.988-6.863,5.962-6.863c1.71,0,2.935,0.277,3.675,0.832V15.77H260.213z M274.501,32.177
			c-0.954-1.017-1.432-2.319-1.432-3.906c0-1.602,0.478-2.919,1.432-3.951c0.955-1.033,2.166-1.548,3.631-1.548
			c1.462,0,2.668,0.515,3.608,1.548c0.941,1.032,1.41,2.349,1.41,3.951c0,1.587-0.469,2.889-1.41,3.906
			c-0.94,1.016-2.146,1.524-3.608,1.524C276.667,33.701,275.456,33.193,274.501,32.177 M268.54,18.9
			c-2.463,2.397-3.693,5.519-3.693,9.371c0,3.805,1.234,6.909,3.703,9.313c2.468,2.403,5.662,3.604,9.582,3.604
			c3.877,0,7.051-1.201,9.529-3.604c2.475-2.404,3.714-5.508,3.714-9.313c0-3.835-1.235-6.955-3.704-9.359
			c-2.469-2.403-5.648-3.604-9.539-3.604C274.198,15.308,271,16.506,268.54,18.9 M306.694,19.12v-3.026h-8.618V40.38h8.618V27.878
			c0-3.805,1.466-5.707,4.392-5.707c2.587,0,3.883,1.587,3.883,4.76V40.38h8.618V25.475c0-3.266-0.782-5.777-2.346-7.533
			c-1.563-1.756-3.838-2.634-6.826-2.634C311.009,15.308,308.437,16.578,306.694,19.12 M386.338,17.526
			c-2.049,1.541-3.074,3.651-3.074,6.331c0,3.682,2.064,5.909,6.193,6.679c1.742,0.323,2.905,0.632,3.491,0.924
			c0.738,0.355,1.108,0.901,1.108,1.641c0,0.462-0.282,0.866-0.846,1.213c-0.561,0.346-1.18,0.519-1.857,0.519
			c-1.171,0-2.504-0.307-3.999-0.924c-1.247-0.507-2.173-1.016-2.771-1.524l-3.168,5.915c2.699,1.957,5.916,2.934,9.662,2.934
			c3.512,0,6.329-0.823,8.454-2.472c2.126-1.649,3.191-3.851,3.191-6.609c0-1.803-0.603-3.35-1.804-4.645
			c-1.233-1.355-2.904-2.179-5.014-2.472c-2.773-0.385-4.16-1.124-4.16-2.218c0-1.094,0.908-1.641,2.726-1.641
			c1.71,0,3.243,0.393,4.599,1.179l2.891-5.5c-2.126-1.032-4.746-1.548-7.859-1.548C390.896,15.308,388.31,16.047,386.338,17.526
			 M203.621,14.106l4.207,12.362h-8.436L203.621,14.106z M198.214,4.701L184.742,40.38h9.936l2.312-6.817h13.24l2.333,6.817h9.937
			L209.005,4.701H198.214z M331.092,12.615h9.015V3.601h-9.015V12.615z M227.296,40.38h8.618V2.991h-8.618V40.38z M348.104,2.991
			V40.38h8.619v-9.844l9.406,9.844h12.223l-13.078-13.056l12.18-11.23h-11.786l-8.944,8.758V2.991H348.104z"/>
	</defs>
	<clipPath id="SVGID_11_">
		<use xlink:href="#SVGID_10_"  overflow="visible"/>
	</clipPath>
	
		<linearGradient id="SVGID_12_" gradientUnits="userSpaceOnUse" x1="-264.7842" y1="330.999" x2="-263.7842" y2="330.999" gradientTransform="matrix(-3.500000e-06 -79.6626 -79.6626 3.500000e-06 26662.0352 -21010.7734)">
		<stop  offset="0" style="stop-color:#000000"/>
		<stop  offset="1" style="stop-color:#4D4D4D"/>
	</linearGradient>
	<rect x="184.742" y="2.991" clip-path="url(#SVGID_11_)" fill="url(#SVGID_12_)" width="217.981" height="79.663"/>
</g>
</svg>
